<svg width="18" height="15" viewBox="0 0 18 15" fill="none" xmlns="http://www.w3.org/2000/svg">
<path fill-rule="evenodd" clip-rule="evenodd" d="M9.00167 14.5C8.78084 14.5 8.56834 14.4125 8.41251 14.255L1.93917 7.77171C0.242505 6.07171 0.242505 3.30587 1.93917 1.60587C2.75917 0.785874 3.85251 0.333374 5.01834 0.333374C6.18417 0.333374 7.27834 0.785874 8.09751 1.60587L9.00167 2.51171L9.90584 1.60671C10.7258 0.785874 11.8192 0.333374 12.9858 0.333374C14.1508 0.333374 15.245 0.785874 16.0642 1.60587C17.7617 3.30587 17.7617 6.07171 16.065 7.77171L9.59167 14.2559C9.43501 14.4125 9.22334 14.5 9.00167 14.5Z" fill="#FF754C"/>
</svg>
