<svg width="17" height="16" viewBox="0 0 17 16" fill="none" xmlns="http://www.w3.org/2000/svg">
<path fill-rule="evenodd" clip-rule="evenodd" d="M14 13.8333C13.54 13.8333 13.1667 13.46 13.1667 13C13.1667 12.54 13.54 12.1667 14 12.1667C14.46 12.1667 14.8333 12.54 14.8333 13C14.8333 13.46 14.46 13.8333 14 13.8333ZM3.16667 8.83333C2.70667 8.83333 2.33334 8.46 2.33334 8C2.33334 7.54 2.70667 7.16667 3.16667 7.16667C3.62667 7.16667 4.00001 7.54 4.00001 8C4.00001 8.46 3.62667 8.83333 3.16667 8.83333ZM14 2.16667C14.46 2.16667 14.8333 2.54 14.8333 3C14.8333 3.46 14.46 3.83333 14 3.83333C13.54 3.83333 13.1667 3.46 13.1667 3C13.1667 2.54 13.54 2.16667 14 2.16667ZM14 10.5C13.3192 10.5 12.7025 10.775 12.2508 11.2175L5.63834 8.27917C5.64917 8.18667 5.66667 8.095 5.66667 8C5.66667 7.905 5.64917 7.81333 5.63834 7.72083L12.2508 4.7825C12.7025 5.225 13.3192 5.5 14 5.5C15.3783 5.5 16.5 4.37833 16.5 3C16.5 1.62167 15.3783 0.5 14 0.5C12.6217 0.5 11.5 1.62167 11.5 3C11.5 3.095 11.5175 3.18667 11.5283 3.27917L4.91584 6.2175C4.46417 5.775 3.84751 5.5 3.16667 5.5C1.78834 5.5 0.666672 6.62167 0.666672 8C0.666672 9.37833 1.78834 10.5 3.16667 10.5C3.84751 10.5 4.46417 10.225 4.91584 9.7825L11.5283 12.7208C11.5175 12.8133 11.5 12.905 11.5 13C11.5 14.3783 12.6217 15.5 14 15.5C15.3783 15.5 16.5 14.3783 16.5 13C16.5 11.6217 15.3783 10.5 14 10.5Z" fill="#A6A7B2"/>
</svg>
      